# xmcd CD Database Entry
#
# Track frame offsets:
# 150
# 18098
# 34030
# 51056
# 67564
# 83808
# 100530
# 117733
# 133648
# 151966
# 168513
# 181983
# 197168
# 214413
# 228907
# 246797
# 261778
#
# Disc length: 3744 seconds
#
# Revision: 1
# Processed by: cddbd v1.4PL0 Copyright (c) Steve Scherf et al.
# Submitted via: tcd 2.0b
#
DISCID=db0e9e11
DTITLE=Various Artist - Suzanne's V02
DYEAR=1900
DGENRE=
TTITLE0=Amazed
TTITLE1=Can I Trust You With My Heart
TTITLE2=I Need You
TTITLE3=I Know How The River Feels
TTITLE4=No Place That Far
TTITLE5=It's Your Love
TTITLE6=Had Me From Hello
TTITLE7=You're Still The One
TTITLE8=I Don't Want To Miss A Thing
TTITLE9=Nothing At All
TTITLE10=To Make You Feel My Love
TTITLE11=I Will Be There For You
TTITLE12=I Wouldn't Want It Any Other Way
TTITLE13=Reality Check
TTITLE14=Getting Up Again
TTITLE15=A Summer Too Early, An Autumn Too Late
TTITLE16=Sunlight (Growing Up)
EXTD=Second part of a wishlist of songs, plus a couple of surprise
EXTD=s.
EXTT0=Lonestar
EXTT1=Travis Tritt 
EXTT2=Leann Rimes
EXTT3=Diamon Rio
EXTT4=Sara Evans
EXTT5=Tim McGraw
EXTT6=Kenny Chesney
EXTT7=Shania Twain
EXTT8=Mark Chesnutt
EXTT9=Keith Whitley
EXTT10=Garth Brooks
EXTT11=Jessica Andrews
EXTT12=Tim McGraw
EXTT13=From the Hope Floats soundtrack
EXTT14=From the Hope Floats soundtrack
EXTT15=Chaucer Wells
EXTT16=Chaucer Wells
PLAYORDER=
